<?xml version="1.0" encoding="utf-8" standalone="no"?>
<!DOCTYPE svg PUBLIC "-//W3C//DTD SVG 1.1//EN"
  "http://www.w3.org/Graphics/SVG/1.1/DTD/svg11.dtd">
<svg xmlns:xlink="http://www.w3.org/1999/xlink" width="460.8pt" height="345.6pt" viewBox="0 0 460.8 345.6" xmlns="http://www.w3.org/2000/svg" version="1.1">
 <metadata>
  <rdf:RDF xmlns:dc="http://purl.org/dc/elements/1.1/" xmlns:cc="http://creativecommons.org/ns#" xmlns:rdf="http://www.w3.org/1999/02/22-rdf-syntax-ns#">
   <cc:Work>
    <dc:type rdf:resource="http://purl.org/dc/dcmitype/StillImage"/>
    <dc:date>2024-04-14T22:05:13.330710</dc:date>
    <dc:format>image/svg+xml</dc:format>
    <dc:creator>
     <cc:Agent>
      <dc:title>Matplotlib v3.5.1, https://matplotlib.org/</dc:title>
     </cc:Agent>
    </dc:creator>
   </cc:Work>
  </rdf:RDF>
 </metadata>
 <defs>
  <style type="text/css">*{stroke-linejoin: round; stroke-linecap: butt}</style>
 </defs>
 <g id="figure_1">
  <g id="patch_1">
   <path d="M 0 345.6 
L 460.8 345.6 
L 460.8 0 
L 0 0 
z
" style="fill: #ffffff"/>
  </g>
  <g id="axes_1">
   <g id="patch_2">
    <path d="M 57.6 307.584 
L 414.72 307.584 
L 414.72 41.472 
L 57.6 41.472 
z
" style="fill: #ffffff"/>
   </g>
   <g id="matplotlib.axis_1">
    <g id="xtick_1">
     <g id="line2d_1">
      <defs>
       <path id="me7e45be07e" d="M 0 0 
L 0 -3.5 
" style="stroke: #000000; stroke-width: 0.8"/>
      </defs>
      <g>
       <use xlink:href="#me7e45be07e" x="106.298182" y="307.584" style="stroke: #000000; stroke-width: 0.8"/>
      </g>
     </g>
     <g id="text_1">
      <!-- −4 -->
      <g transform="translate(97.298182 319.662125)scale(0.12 -0.12)">
       <defs>
        <path id="SimSun-2212" transform="scale(0.015625)"/>
        <path id="SimSun-34" d="M 2300 575 
Q 2300 400 2400 325 
Q 2500 250 2675 250 
L 2900 250 
L 2900 100 
L 1250 100 
L 1250 250 
L 1525 250 
Q 1725 250 1812 325 
Q 1900 400 1900 575 
L 1900 1400 
L 225 1400 
L 225 1525 
L 2050 4425 
L 2300 4425 
L 2300 1550 
L 2975 1550 
L 2975 1400 
L 2300 1400 
L 2300 575 
z
M 1875 3800 
L 450 1550 
L 1900 1550 
L 1900 3800 
L 1875 3800 
z
" transform="scale(0.015625)"/>
       </defs>
       <use xlink:href="#SimSun-2212"/>
       <use xlink:href="#SimSun-34" x="100"/>
      </g>
     </g>
    </g>
    <g id="xtick_2">
     <g id="line2d_2">
      <g>
       <use xlink:href="#me7e45be07e" x="171.229091" y="307.584" style="stroke: #000000; stroke-width: 0.8"/>
      </g>
     </g>
     <g id="text_2">
      <!-- −2 -->
      <g transform="translate(162.229091 319.662125)scale(0.12 -0.12)">
       <defs>
        <path id="SimSun-32" d="M 2325 3325 
Q 2325 3775 2125 4012 
Q 1925 4250 1525 4250 
Q 1225 4250 1012 4087 
Q 800 3925 800 3675 
Q 800 3525 900 3425 
Q 975 3325 975 3225 
Q 975 3100 912 3037 
Q 850 2975 725 2975 
Q 575 2975 487 3062 
Q 400 3150 400 3350 
Q 400 3875 775 4150 
Q 1150 4425 1575 4425 
Q 2175 4425 2462 4125 
Q 2750 3825 2750 3375 
Q 2750 3075 2612 2775 
Q 2475 2475 2175 2200 
Q 1450 1500 1062 1062 
Q 675 625 600 475 
L 2075 475 
Q 2300 475 2450 650 
Q 2600 825 2650 1175 
L 2800 1175 
L 2650 100 
L 325 100 
L 325 425 
Q 450 650 737 1000 
Q 1025 1350 1500 1825 
Q 1925 2250 2125 2625 
Q 2325 3000 2325 3325 
z
" transform="scale(0.015625)"/>
       </defs>
       <use xlink:href="#SimSun-2212"/>
       <use xlink:href="#SimSun-32" x="100"/>
      </g>
     </g>
    </g>
    <g id="xtick_3">
     <g id="line2d_3">
      <g>
       <use xlink:href="#me7e45be07e" x="236.16" y="307.584" style="stroke: #000000; stroke-width: 0.8"/>
      </g>
     </g>
     <g id="text_3">
      <!-- 0 -->
      <g transform="translate(233.16 319.662125)scale(0.12 -0.12)">
       <defs>
        <path id="SimSun-30" d="M 1600 4225 
Q 1250 4225 1012 3687 
Q 775 3150 775 2250 
Q 775 1300 1012 775 
Q 1250 250 1600 250 
Q 1975 250 2187 775 
Q 2400 1300 2400 2250 
Q 2400 3150 2200 3687 
Q 2000 4225 1600 4225 
z
M 1600 50 
Q 1050 50 675 625 
Q 300 1200 300 2250 
Q 300 3225 662 3825 
Q 1025 4425 1600 4425 
Q 2150 4425 2512 3850 
Q 2875 3275 2875 2250 
Q 2875 1225 2512 637 
Q 2150 50 1600 50 
z
" transform="scale(0.015625)"/>
       </defs>
       <use xlink:href="#SimSun-30"/>
      </g>
     </g>
    </g>
    <g id="xtick_4">
     <g id="line2d_4">
      <g>
       <use xlink:href="#me7e45be07e" x="301.090909" y="307.584" style="stroke: #000000; stroke-width: 0.8"/>
      </g>
     </g>
     <g id="text_4">
      <!-- 2 -->
      <g transform="translate(298.090909 319.662125)scale(0.12 -0.12)">
       <use xlink:href="#SimSun-32"/>
      </g>
     </g>
    </g>
    <g id="xtick_5">
     <g id="line2d_5">
      <g>
       <use xlink:href="#me7e45be07e" x="366.021818" y="307.584" style="stroke: #000000; stroke-width: 0.8"/>
      </g>
     </g>
     <g id="text_5">
      <!-- 4 -->
      <g transform="translate(363.021818 319.662125)scale(0.12 -0.12)">
       <use xlink:href="#SimSun-34"/>
      </g>
     </g>
    </g>
   </g>
   <g id="matplotlib.axis_2">
    <g id="ytick_1">
     <g id="line2d_6">
      <defs>
       <path id="m1ab9dc8ad9" d="M 0 0 
L 3.5 0 
" style="stroke: #000000; stroke-width: 0.8"/>
      </defs>
      <g>
       <use xlink:href="#m1ab9dc8ad9" x="57.6" y="295.759979" style="stroke: #000000; stroke-width: 0.8"/>
      </g>
     </g>
     <g id="text_6">
      <!-- −1 -->
      <g transform="translate(36.1 300.049042)scale(0.12 -0.12)">
       <defs>
        <path id="SimSun-31" d="M 1825 4450 
L 1825 650 
Q 1825 450 1950 350 
Q 2075 250 2300 250 
L 2550 250 
L 2550 100 
L 725 100 
L 725 250 
L 950 250 
Q 1200 250 1312 350 
Q 1425 450 1425 650 
L 1425 3675 
Q 1425 3775 1362 3837 
Q 1300 3900 1175 3900 
L 725 3900 
L 725 4050 
L 950 4050 
Q 1250 4050 1437 4150 
Q 1625 4250 1725 4450 
L 1825 4450 
z
" transform="scale(0.015625)"/>
       </defs>
       <use xlink:href="#SimSun-2212"/>
       <use xlink:href="#SimSun-31" x="100"/>
      </g>
     </g>
    </g>
    <g id="ytick_2">
     <g id="line2d_7">
      <g>
       <use xlink:href="#m1ab9dc8ad9" x="57.6" y="255.39465" style="stroke: #000000; stroke-width: 0.8"/>
      </g>
     </g>
     <g id="text_7">
      <!-- 0 -->
      <g transform="translate(48.1 259.683712)scale(0.12 -0.12)">
       <use xlink:href="#SimSun-30"/>
      </g>
     </g>
    </g>
    <g id="ytick_3">
     <g id="line2d_8">
      <g>
       <use xlink:href="#m1ab9dc8ad9" x="57.6" y="215.02932" style="stroke: #000000; stroke-width: 0.8"/>
      </g>
     </g>
     <g id="text_8">
      <!-- 1 -->
      <g transform="translate(48.1 219.318382)scale(0.12 -0.12)">
       <use xlink:href="#SimSun-31"/>
      </g>
     </g>
    </g>
    <g id="ytick_4">
     <g id="line2d_9">
      <g>
       <use xlink:href="#m1ab9dc8ad9" x="57.6" y="174.66399" style="stroke: #000000; stroke-width: 0.8"/>
      </g>
     </g>
     <g id="text_9">
      <!-- 2 -->
      <g transform="translate(48.1 178.953052)scale(0.12 -0.12)">
       <use xlink:href="#SimSun-32"/>
      </g>
     </g>
    </g>
    <g id="ytick_5">
     <g id="line2d_10">
      <g>
       <use xlink:href="#m1ab9dc8ad9" x="57.6" y="134.29866" style="stroke: #000000; stroke-width: 0.8"/>
      </g>
     </g>
     <g id="text_10">
      <!-- 3 -->
      <g transform="translate(48.1 138.587722)scale(0.12 -0.12)">
       <defs>
        <path id="SimSun-33" d="M 2800 1250 
Q 2800 775 2450 412 
Q 2100 50 1475 50 
Q 1025 50 700 300 
Q 375 550 375 875 
Q 375 1025 475 1137 
Q 575 1250 675 1250 
Q 825 1250 887 1137 
Q 950 1025 950 950 
Q 950 825 900 750 
Q 850 650 850 575 
Q 850 425 1037 325 
Q 1225 225 1450 225 
Q 1900 225 2125 487 
Q 2350 750 2350 1300 
Q 2350 1750 2112 2025 
Q 1875 2300 1225 2300 
L 1225 2475 
Q 1725 2475 1962 2712 
Q 2200 2950 2200 3375 
Q 2200 3725 2012 3987 
Q 1825 4250 1425 4250 
Q 1250 4250 1050 4162 
Q 850 4075 850 3875 
Q 850 3675 900 3625 
Q 950 3575 950 3500 
Q 950 3375 900 3300 
Q 850 3225 725 3225 
Q 625 3225 537 3300 
Q 450 3375 450 3575 
Q 450 3950 775 4187 
Q 1100 4425 1525 4425 
Q 2025 4425 2325 4112 
Q 2625 3800 2625 3450 
Q 2625 3075 2437 2812 
Q 2250 2550 1850 2425 
Q 2400 2225 2600 1900 
Q 2800 1575 2800 1250 
z
" transform="scale(0.015625)"/>
       </defs>
       <use xlink:href="#SimSun-33"/>
      </g>
     </g>
    </g>
    <g id="ytick_6">
     <g id="line2d_11">
      <g>
       <use xlink:href="#m1ab9dc8ad9" x="57.6" y="93.93333" style="stroke: #000000; stroke-width: 0.8"/>
      </g>
     </g>
     <g id="text_11">
      <!-- 4 -->
      <g transform="translate(48.1 98.222392)scale(0.12 -0.12)">
       <use xlink:href="#SimSun-34"/>
      </g>
     </g>
    </g>
    <g id="ytick_7">
     <g id="line2d_12">
      <g>
       <use xlink:href="#m1ab9dc8ad9" x="57.6" y="53.568" style="stroke: #000000; stroke-width: 0.8"/>
      </g>
     </g>
     <g id="text_12">
      <!-- 5 -->
      <g transform="translate(48.1 57.857062)scale(0.12 -0.12)">
       <defs>
        <path id="SimSun-35" d="M 1725 2850 
Q 2200 2850 2500 2487 
Q 2800 2125 2800 1525 
Q 2800 850 2487 450 
Q 2175 50 1525 50 
Q 1075 50 725 312 
Q 375 575 375 950 
Q 375 1100 462 1212 
Q 550 1325 700 1325 
Q 850 1325 900 1225 
Q 950 1125 950 1050 
Q 950 900 875 825 
Q 800 725 800 625 
Q 800 425 1037 325 
Q 1275 225 1550 225 
Q 1950 225 2162 550 
Q 2375 875 2375 1475 
Q 2375 1975 2187 2287 
Q 2000 2600 1625 2600 
Q 1350 2600 1150 2500 
Q 950 2400 775 2075 
L 550 2100 
L 675 4375 
L 2725 4375 
L 2650 4000 
L 850 4000 
L 750 2350 
Q 1000 2700 1237 2775 
Q 1475 2850 1725 2850 
z
" transform="scale(0.015625)"/>
       </defs>
       <use xlink:href="#SimSun-35"/>
      </g>
     </g>
    </g>
   </g>
   <g id="line2d_13">
    <path d="M 73.832727 255.394659 
L 77.112066 255.394668 
L 80.391405 255.394684 
L 83.670744 255.394714 
L 86.950083 255.394768 
L 90.229421 255.394863 
L 93.50876 255.395025 
L 96.788099 255.395298 
L 100.067438 255.395748 
L 103.346777 255.396474 
L 106.626116 255.397625 
L 109.905455 255.399415 
L 113.184793 255.402149 
L 116.464132 255.40625 
L 119.743471 255.412293 
L 123.02281 255.421044 
L 126.302149 255.433507 
L 129.581488 255.450962 
L 132.860826 255.475015 
L 136.140165 255.507635 
L 139.419504 255.551186 
L 142.698843 255.608443 
L 145.978182 255.682584 
L 149.257521 255.777159 
L 152.53686 255.896019 
L 155.816198 256.043208 
L 159.095537 256.2228 
L 162.374876 256.438695 
L 165.654215 256.694351 
L 168.933554 256.992472 
L 172.212893 257.334642 
L 175.492231 257.720923 
L 178.77157 258.149429 
L 182.050909 258.6159 
L 185.330248 259.113286 
L 188.609587 259.631393 
L 191.888926 260.156605 
L 195.168264 260.671726 
L 198.447603 261.155972 
L 201.726942 261.585143 
L 205.006281 261.931995 
L 208.28562 262.166808 
L 211.564959 262.258174 
L 214.844298 262.173941 
L 218.123636 261.882314 
L 221.402975 261.353028 
L 224.682314 260.558554 
L 227.961653 259.475244 
L 231.240992 258.084362 
L 234.520331 256.372918 
L 237.799669 254.334265 
L 241.079008 251.968402 
L 244.358347 249.281979 
L 247.637686 246.287983 
L 250.917025 243.005151 
L 254.196364 239.457131 
L 257.475702 235.671452 
L 260.755041 231.678379 
L 264.03438 227.509707 
L 267.313719 223.197587 
L 270.593058 218.77343 
L 273.872397 214.266952 
L 277.151736 209.7054 
L 280.431074 205.112973 
L 283.710413 200.510455 
L 286.989752 195.915042 
L 290.269091 191.34035 
L 293.54843 186.796573 
L 296.827769 182.290761 
L 300.107107 177.827174 
L 303.386446 173.407698 
L 306.665785 169.032271 
L 309.945124 164.699309 
L 313.224463 160.406108 
L 316.503802 156.14921 
L 319.78314 151.924715 
L 323.062479 147.728549 
L 326.341818 143.556668 
L 329.621157 139.40522 
L 332.900496 135.270658 
L 336.179835 131.1498 
L 339.459174 127.039874 
L 342.738512 122.938515 
L 346.017851 118.843754 
L 349.29719 114.753986 
L 352.576529 110.667928 
L 355.855868 106.584579 
L 359.135207 102.503172 
L 362.414545 98.423132 
L 365.693884 94.344036 
L 368.973223 90.265579 
L 372.252562 86.187546 
L 375.531901 82.109791 
L 378.81124 78.032212 
L 382.090579 73.954744 
L 385.369917 69.877343 
L 388.649256 65.799983 
L 391.928595 61.722647 
L 395.207934 57.645324 
L 398.487273 53.568009 
" clip-path="url(#p99bd686277)" style="fill: none; stroke: #ff0000; stroke-width: 1.5; stroke-linecap: square"/>
   </g>
   <g id="line2d_14">
    <path d="M 73.832727 255.39465 
L 77.112066 255.39465 
L 80.391405 255.39465 
L 83.670744 255.39465 
L 86.950083 255.39465 
L 90.229421 255.39465 
L 93.50876 255.39465 
L 96.788099 255.39465 
L 100.067438 255.39465 
L 103.346777 255.39465 
L 106.626116 255.39465 
L 109.905455 255.39465 
L 113.184793 255.39465 
L 116.464132 255.39465 
L 119.743471 255.39465 
L 123.02281 255.39465 
L 126.302149 255.39465 
L 129.581488 255.39465 
L 132.860826 255.39465 
L 136.140165 255.39465 
L 139.419504 255.39465 
L 142.698843 255.39465 
L 145.978182 255.39465 
L 149.257521 255.39465 
L 152.53686 255.39465 
L 155.816198 255.39465 
L 159.095537 255.39465 
L 162.374876 255.39465 
L 165.654215 255.39465 
L 168.933554 255.39465 
L 172.212893 255.39465 
L 175.492231 255.39465 
L 178.77157 255.39465 
L 182.050909 255.39465 
L 185.330248 255.39465 
L 188.609587 255.39465 
L 191.888926 255.39465 
L 195.168264 255.39465 
L 198.447603 255.39465 
L 201.726942 255.39465 
L 205.006281 255.39465 
L 208.28562 255.39465 
L 211.564959 255.39465 
L 214.844298 255.39465 
L 218.123636 255.39465 
L 221.402975 255.39465 
L 224.682314 255.39465 
L 227.961653 255.39465 
L 231.240992 255.39465 
L 234.520331 255.39465 
L 237.799669 253.355997 
L 241.079008 249.27869 
L 244.358347 245.201384 
L 247.637686 241.124078 
L 250.917025 237.046772 
L 254.196364 232.969466 
L 257.475702 228.89216 
L 260.755041 224.814854 
L 264.03438 220.737548 
L 267.313719 216.660242 
L 270.593058 212.582936 
L 273.872397 208.50563 
L 277.151736 204.428324 
L 280.431074 200.351018 
L 283.710413 196.273712 
L 286.989752 192.196406 
L 290.269091 188.1191 
L 293.54843 184.041794 
L 296.827769 179.964488 
L 300.107107 175.887182 
L 303.386446 171.809875 
L 306.665785 167.732569 
L 309.945124 163.655263 
L 313.224463 159.577957 
L 316.503802 155.500651 
L 319.78314 151.423345 
L 323.062479 147.346039 
L 326.341818 143.268733 
L 329.621157 139.191427 
L 332.900496 135.114121 
L 336.179835 131.036815 
L 339.459174 126.959509 
L 342.738512 122.882203 
L 346.017851 118.804897 
L 349.29719 114.727591 
L 352.576529 110.650285 
L 355.855868 106.572979 
L 359.135207 102.495673 
L 362.414545 98.418367 
L 365.693884 94.341061 
L 368.973223 90.263754 
L 372.252562 86.186448 
L 375.531901 82.109142 
L 378.81124 78.031836 
L 382.090579 73.95453 
L 385.369917 69.877224 
L 388.649256 65.799918 
L 391.928595 61.722612 
L 395.207934 57.645306 
L 398.487273 53.568 
" clip-path="url(#p99bd686277)" style="fill: none; stroke: #008000; stroke-width: 1.5; stroke-linecap: square"/>
   </g>
   <g id="line2d_15">
    <path d="M 73.832727 295.488 
L 77.112066 295.459092 
L 80.391405 295.427111 
L 83.670744 295.391731 
L 86.950083 295.352591 
L 90.229421 295.309291 
L 93.50876 295.261388 
L 96.788099 295.208394 
L 100.067438 295.149767 
L 103.346777 295.084909 
L 106.626116 295.013157 
L 109.905455 294.933779 
L 113.184793 294.845964 
L 116.464132 294.748815 
L 119.743471 294.641341 
L 123.02281 294.522443 
L 126.302149 294.390908 
L 129.581488 294.245392 
L 132.860826 294.08441 
L 136.140165 293.906317 
L 139.419504 293.709296 
L 142.698843 293.491333 
L 145.978182 293.250204 
L 149.257521 292.983445 
L 152.53686 292.688333 
L 155.816198 292.361855 
L 159.095537 292.000675 
L 162.374876 291.601107 
L 165.654215 291.15907 
L 168.933554 290.670049 
L 172.212893 290.129051 
L 175.492231 289.530552 
L 178.77157 288.86844 
L 182.050909 288.135953 
L 185.330248 287.325612 
L 188.609587 286.429142 
L 191.888926 285.437388 
L 195.168264 284.340222 
L 198.447603 283.126441 
L 201.726942 281.783649 
L 205.006281 280.298136 
L 208.28562 278.65473 
L 211.564959 276.836651 
L 214.844298 274.825331 
L 218.123636 272.600233 
L 221.402975 270.138634 
L 224.682314 267.415398 
L 227.961653 264.402714 
L 231.240992 261.069819 
L 234.520331 257.382677 
L 237.799669 253.355997 
L 241.079008 249.27869 
L 244.358347 245.201384 
L 247.637686 241.124078 
L 250.917025 237.046772 
L 254.196364 232.969466 
L 257.475702 228.89216 
L 260.755041 224.814854 
L 264.03438 220.737548 
L 267.313719 216.660242 
L 270.593058 212.582936 
L 273.872397 208.50563 
L 277.151736 204.428324 
L 280.431074 200.351018 
L 283.710413 196.273712 
L 286.989752 192.196406 
L 290.269091 188.1191 
L 293.54843 184.041794 
L 296.827769 179.964488 
L 300.107107 175.887182 
L 303.386446 171.809875 
L 306.665785 167.732569 
L 309.945124 163.655263 
L 313.224463 159.577957 
L 316.503802 155.500651 
L 319.78314 151.423345 
L 323.062479 147.346039 
L 326.341818 143.268733 
L 329.621157 139.191427 
L 332.900496 135.114121 
L 336.179835 131.036815 
L 339.459174 126.959509 
L 342.738512 122.882203 
L 346.017851 118.804897 
L 349.29719 114.727591 
L 352.576529 110.650285 
L 355.855868 106.572979 
L 359.135207 102.495673 
L 362.414545 98.418367 
L 365.693884 94.341061 
L 368.973223 90.263754 
L 372.252562 86.186448 
L 375.531901 82.109142 
L 378.81124 78.031836 
L 382.090579 73.95453 
L 385.369917 69.877224 
L 388.649256 65.799918 
L 391.928595 61.722612 
L 395.207934 57.645306 
L 398.487273 53.568 
" clip-path="url(#p99bd686277)" style="fill: none; stroke: #1f77b4; stroke-width: 1.5; stroke-linecap: square"/>
   </g>
   <g id="patch_3">
    <path d="M 57.6 307.584 
L 57.6 41.472 
" style="fill: none; stroke: #000000; stroke-width: 0.8; stroke-linejoin: miter; stroke-linecap: square"/>
   </g>
   <g id="patch_4">
    <path d="M 414.72 307.584 
L 414.72 41.472 
" style="fill: none; stroke: #000000; stroke-width: 0.8; stroke-linejoin: miter; stroke-linecap: square"/>
   </g>
   <g id="patch_5">
    <path d="M 57.6 307.584 
L 414.72 307.584 
" style="fill: none; stroke: #000000; stroke-width: 0.8; stroke-linejoin: miter; stroke-linecap: square"/>
   </g>
   <g id="patch_6">
    <path d="M 57.6 41.472 
L 414.72 41.472 
" style="fill: none; stroke: #000000; stroke-width: 0.8; stroke-linejoin: miter; stroke-linecap: square"/>
   </g>
   <g id="text_13">
    <!-- 三种激活函数对比 -->
    <g transform="translate(178.56 35.472)scale(0.144 -0.144)">
     <defs>
      <path id="SimSun-4e09" d="M 750 4300 
L 4875 4300 
L 5250 4675 
L 5775 4150 
L 1550 4150 
Q 1250 4150 975 4075 
L 750 4300 
z
M 1125 2300 
L 4375 2300 
L 4750 2675 
L 5275 2150 
L 1925 2150 
Q 1625 2150 1350 2075 
L 1125 2300 
z
M 250 175 
L 5200 175 
L 5600 575 
L 6150 25 
L 1050 25 
Q 750 25 475 -50 
L 250 175 
z
" transform="scale(0.015625)"/>
      <path id="SimSun-79cd" d="M 3400 3475 
L 3400 1900 
L 4200 1900 
L 4200 3475 
L 3400 3475 
z
M 4525 3475 
L 4525 1900 
L 5400 1900 
L 5400 3475 
L 4525 3475 
z
M 3050 1275 
Q 3075 1800 3075 2625 
Q 3075 3450 3050 3825 
L 3400 3625 
L 4200 3625 
Q 4200 4825 4175 5225 
L 4750 4950 
L 4525 4775 
L 4525 3625 
L 5350 3625 
L 5525 3900 
L 5925 3600 
L 5725 3400 
Q 5725 2375 5750 1525 
L 5400 1400 
L 5400 1750 
L 4525 1750 
Q 4525 -100 4550 -450 
L 4175 -600 
Q 4200 325 4200 1750 
L 3400 1750 
L 3400 1425 
L 3050 1275 
z
M 1550 -625 
Q 1575 525 1575 2275 
Q 1075 1275 300 625 
L 250 700 
Q 750 1325 1087 1987 
Q 1425 2650 1575 3225 
L 1125 3225 
Q 800 3225 525 3150 
L 300 3375 
L 1575 3375 
L 1575 4450 
Q 1050 4375 475 4325 
L 475 4425 
Q 975 4500 1575 4662 
Q 2175 4825 2475 5050 
L 2850 4625 
Q 2375 4575 1900 4500 
L 1900 3375 
L 2200 3375 
L 2500 3675 
L 2925 3225 
L 1900 3225 
L 1900 2650 
Q 2500 2450 2637 2325 
Q 2775 2200 2775 2050 
Q 2775 1950 2712 1800 
Q 2650 1650 2600 1650 
Q 2550 1650 2450 1875 
Q 2275 2200 1900 2525 
Q 1900 -50 1925 -450 
L 1550 -625 
z
" transform="scale(0.015625)"/>
      <path id="SimSun-6fc0" d="M 2375 4225 
L 2375 3650 
L 3425 3650 
L 3425 4225 
L 2375 4225 
z
M 2375 3500 
L 2375 2900 
L 3425 2900 
L 3425 3500 
L 2375 3500 
z
M 3750 4150 
Q 3750 3100 3775 2725 
L 3425 2550 
L 3425 2750 
L 2825 2750 
Q 3125 2575 3162 2487 
Q 3200 2400 3200 2350 
Q 3200 2250 3100 2125 
L 3650 2125 
L 3900 2375 
L 4275 1975 
L 2675 1975 
Q 2650 1700 2625 1500 
L 3400 1500 
L 3600 1700 
L 3900 1400 
L 3725 1275 
Q 3675 350 3550 162 
Q 3425 -25 3075 -175 
Q 3000 150 2525 275 
L 2525 375 
Q 3100 275 3200 312 
Q 3300 350 3337 550 
Q 3375 750 3400 1350 
L 2600 1350 
Q 2375 50 1350 -575 
L 1300 -500 
Q 2275 350 2350 1975 
L 2325 1975 
Q 2000 1975 1725 1900 
L 1500 2125 
L 2925 2125 
Q 2900 2450 2700 2750 
L 2375 2750 
L 2375 2575 
L 2025 2475 
Q 2050 3000 2050 3537 
Q 2050 4075 2025 4575 
L 2375 4375 
L 2575 4375 
Q 2750 4950 2775 5250 
L 3225 5000 
L 3050 4900 
Q 2850 4600 2700 4375 
L 3400 4375 
L 3625 4600 
L 3950 4275 
L 3750 4150 
z
M 4375 3350 
Q 4500 2025 4825 1325 
Q 5150 2100 5275 3350 
L 4375 3350 
z
M 4600 5225 
L 5125 4975 
L 4950 4825 
Q 4725 4200 4425 3500 
L 5525 3500 
L 5775 3750 
L 6150 3375 
L 5600 3375 
Q 5450 1850 5000 975 
Q 5400 300 6150 -75 
L 6150 -150 
Q 5800 -150 5700 -350 
Q 5250 75 4850 700 
Q 4200 -150 3000 -600 
L 2975 -500 
Q 4000 0 4675 975 
Q 4325 1800 4275 3200 
Q 4200 3025 3850 2550 
L 3775 2600 
Q 4200 3375 4400 4150 
Q 4600 4925 4600 5225 
z
M 1775 3900 
Q 1325 1500 1275 1200 
Q 1200 875 1212 425 
Q 1225 -25 1250 -200 
Q 1250 -300 1125 -300 
Q 1025 -300 887 -250 
Q 750 -200 750 -25 
Q 750 100 825 350 
Q 875 550 875 725 
Q 875 925 762 1025 
Q 650 1125 275 1225 
L 275 1325 
Q 725 1275 825 1287 
Q 925 1300 1037 1512 
Q 1150 1725 1675 3925 
L 1775 3900 
z
M 275 3750 
Q 1025 3325 1025 3087 
Q 1025 2850 950 2775 
L 850 2700 
Q 750 2700 675 2975 
Q 550 3300 225 3675 
L 275 3750 
z
M 850 5075 
Q 1450 4750 1525 4587 
Q 1600 4425 1600 4375 
Q 1600 4250 1512 4150 
Q 1425 4050 1400 4050 
Q 1325 4050 1225 4325 
Q 1100 4700 800 5025 
L 850 5075 
z
" transform="scale(0.015625)"/>
      <path id="SimSun-6d3b" d="M 5350 1500 
Q 5350 1050 5350 525 
Q 5350 0 5375 -475 
L 5000 -625 
L 5000 100 
L 2825 100 
L 2825 -450 
L 2450 -625 
Q 2475 50 2475 700 
Q 2475 1350 2450 2000 
L 2825 1800 
L 3775 1800 
L 3775 2925 
L 2875 2925 
Q 2550 2925 2275 2850 
L 2050 3075 
L 3775 3075 
L 3775 4325 
Q 3025 4250 2300 4200 
L 2300 4300 
Q 3525 4500 4175 4662 
Q 4825 4825 5200 5050 
L 5575 4550 
Q 5300 4525 4950 4475 
Q 4600 4425 4100 4350 
L 4100 3075 
L 5425 3075 
L 5725 3375 
L 6150 2925 
L 4100 2925 
L 4100 1800 
L 4975 1800 
L 5225 2050 
L 5600 1650 
L 5350 1500 
z
M 2825 1650 
L 2825 250 
L 5000 250 
L 5000 1650 
L 2825 1650 
z
M 2100 3575 
Q 1475 1450 1387 1137 
Q 1300 825 1312 375 
Q 1325 -75 1350 -250 
Q 1350 -350 1225 -350 
Q 1125 -350 975 -300 
Q 825 -250 825 -75 
Q 825 50 900 300 
Q 975 550 975 700 
Q 975 875 862 975 
Q 750 1075 375 1175 
L 375 1275 
Q 825 1225 937 1237 
Q 1050 1250 1187 1462 
Q 1325 1675 2000 3600 
L 2100 3575 
z
M 400 3550 
Q 1275 3100 1275 2812 
Q 1275 2525 1137 2425 
Q 1000 2325 900 2675 
Q 775 3000 350 3475 
L 400 3550 
z
M 975 5000 
Q 1675 4650 1737 4475 
Q 1800 4300 1800 4225 
Q 1800 4100 1712 4000 
Q 1625 3900 1575 3900 
Q 1500 3900 1425 4150 
Q 1300 4475 925 4925 
L 975 5000 
z
" transform="scale(0.015625)"/>
      <path id="SimSun-51fd" d="M 3050 2275 
L 3050 3000 
Q 3050 3450 3025 3800 
L 3275 3625 
L 4450 4475 
L 1650 4475 
Q 1325 4475 1050 4400 
L 825 4625 
L 4450 4625 
L 4775 4875 
L 5150 4375 
Q 4875 4325 4550 4175 
Q 4225 4025 3400 3550 
L 3550 3450 
L 3375 3325 
L 3375 2400 
Q 4250 3225 4475 3600 
L 4875 3150 
L 4625 3125 
Q 3625 2425 3400 2275 
Q 4575 1675 4687 1487 
Q 4800 1300 4800 1150 
Q 4800 1025 4750 925 
Q 4700 825 4675 825 
Q 4575 825 4375 1150 
Q 4075 1600 3375 2150 
L 3375 725 
Q 3375 350 2875 150 
Q 2850 450 2200 650 
L 2200 750 
Q 2800 675 2925 700 
Q 3050 725 3050 850 
L 3050 2100 
Q 1850 1300 1625 1025 
L 1275 1400 
Q 1575 1475 2087 1725 
Q 2600 1975 3050 2275 
z
M 1700 3475 
L 1775 3550 
Q 2350 3200 2475 3025 
Q 2600 2850 2600 2775 
Q 2600 2650 2500 2525 
Q 2400 2400 2350 2400 
Q 2275 2400 2225 2575 
Q 2150 2875 1700 3475 
z
M 5150 0 
L 5150 2175 
Q 5150 2725 5125 3325 
L 5725 3050 
L 5500 2850 
L 5500 525 
Q 5500 100 5525 -400 
L 5150 -600 
L 5150 -150 
L 1250 -150 
L 1000 -375 
L 675 -50 
L 875 125 
L 875 2375 
Q 875 2800 850 3425 
L 1450 3150 
L 1225 2975 
L 1225 0 
L 5150 0 
z
" transform="scale(0.015625)"/>
      <path id="SimSun-6570" d="M 1875 1525 
Q 1675 1200 1500 900 
Q 1825 825 2275 725 
Q 2500 975 2725 1525 
L 1875 1525 
z
M 850 4900 
Q 1325 4600 1425 4450 
Q 1525 4300 1525 4225 
Q 1525 4100 1437 3975 
Q 1350 3850 1300 3850 
Q 1225 3850 1150 4100 
Q 1050 4450 775 4850 
L 850 4900 
z
M 3000 4975 
L 3450 4675 
Q 3250 4625 3100 4425 
Q 2925 4225 2525 3825 
L 2450 3875 
Q 2925 4625 3000 4975 
z
M 1875 5250 
L 2425 5000 
L 2225 4825 
L 2225 3675 
L 2850 3675 
L 3125 3950 
L 3550 3525 
L 2225 3525 
L 2225 3300 
Q 2800 3175 2937 3062 
Q 3075 2950 3075 2775 
Q 3075 2700 3050 2587 
Q 3025 2475 2975 2475 
Q 2925 2475 2800 2650 
Q 2600 2925 2225 3175 
L 2225 2400 
L 1925 2200 
L 2275 2050 
Q 2150 2000 1950 1675 
L 2725 1675 
L 2900 1900 
L 3275 1575 
L 3050 1450 
Q 2800 875 2600 650 
Q 3000 550 3137 437 
Q 3275 325 3275 150 
Q 3275 -25 3200 -25 
Q 3125 -25 3025 75 
Q 2750 275 2400 425 
Q 1525 -275 325 -500 
L 300 -425 
Q 1450 -50 2100 550 
Q 1600 725 1125 800 
Q 1225 950 1525 1525 
L 1200 1525 
Q 875 1525 600 1450 
L 375 1675 
L 1575 1675 
Q 1675 1925 1775 2275 
L 1900 2225 
L 1900 3250 
Q 1225 2475 350 2050 
L 300 2125 
Q 1225 2775 1700 3525 
L 1250 3525 
Q 925 3525 650 3450 
L 425 3675 
L 1900 3675 
Q 1900 4575 1875 5250 
z
M 3925 3525 
Q 4050 2075 4525 1100 
Q 4925 1950 5025 3525 
L 3925 3525 
z
M 4050 5250 
L 4625 4925 
Q 4425 4850 4325 4625 
Q 4225 4400 3950 3675 
L 5375 3675 
L 5675 3975 
L 6125 3525 
L 5400 3525 
Q 5250 1675 4750 775 
Q 5325 75 6100 -100 
L 6100 -200 
Q 5625 -275 5600 -500 
Q 4950 -50 4525 525 
Q 3700 -275 2550 -650 
L 2500 -575 
Q 3650 -50 4325 800 
Q 3850 1975 3825 3375 
Q 3575 2725 3100 2150 
L 3025 2200 
Q 3625 3200 4050 5250 
z
" transform="scale(0.015625)"/>
      <path id="SimSun-5bf9" d="M 400 4250 
L 2375 4250 
L 2575 4500 
L 3000 4150 
L 2750 3950 
Q 2400 2850 2075 2100 
Q 2575 1375 2675 1062 
Q 2775 750 2762 537 
Q 2750 325 2662 237 
Q 2575 150 2550 150 
Q 2450 150 2375 575 
Q 2250 1075 1925 1800 
Q 1675 1350 1275 875 
Q 875 400 250 -100 
L 225 25 
Q 675 450 1087 1037 
Q 1500 1625 1725 2100 
Q 1000 3125 675 3550 
L 750 3625 
Q 1300 3025 1850 2400 
Q 2100 3050 2375 4100 
L 1225 4100 
Q 900 4100 625 4025 
L 400 4250 
z
M 3600 125 
Q 4375 0 4537 25 
Q 4700 50 4700 225 
L 4700 3350 
L 3525 3350 
Q 3200 3350 2925 3275 
L 2700 3500 
L 4700 3500 
L 4700 4350 
Q 4700 4800 4675 5125 
L 5275 4825 
L 5050 4625 
L 5050 3500 
L 5325 3500 
L 5650 3825 
L 6125 3350 
L 5050 3350 
L 5050 50 
Q 5050 -375 4500 -600 
Q 4500 -300 3600 0 
L 3600 125 
z
M 3100 2775 
L 3175 2825 
Q 3700 2400 3812 2175 
Q 3925 1950 3925 1800 
Q 3925 1625 3800 1462 
Q 3675 1300 3650 1300 
Q 3550 1300 3525 1650 
Q 3450 2125 3100 2775 
z
" transform="scale(0.015625)"/>
      <path id="SimSun-6bd4" d="M 1050 3400 
Q 1050 4525 1025 5075 
L 1625 4800 
L 1400 4600 
L 1400 2925 
L 2400 2925 
L 2700 3225 
L 3150 2775 
L 1400 2775 
L 1400 350 
L 3050 925 
L 3100 825 
Q 1625 150 1250 -250 
L 950 175 
Q 1050 275 1050 525 
L 1050 3400 
z
M 3425 3825 
Q 3425 4575 3400 5125 
L 4025 4825 
L 3775 4625 
L 3775 2525 
Q 4300 2925 4712 3400 
Q 5125 3875 5275 4175 
L 5775 3700 
Q 5475 3650 5025 3250 
Q 4550 2850 3775 2375 
L 3775 425 
Q 3775 125 4100 125 
L 5125 125 
Q 5325 125 5400 350 
Q 5475 575 5500 1425 
L 5625 1425 
Q 5625 825 5712 550 
Q 5800 275 6000 175 
Q 5875 -25 5712 -112 
Q 5550 -200 5275 -200 
L 3975 -200 
Q 3425 -200 3425 275 
L 3425 3825 
z
" transform="scale(0.015625)"/>
     </defs>
     <use xlink:href="#SimSun-4e09"/>
     <use xlink:href="#SimSun-79cd" x="100"/>
     <use xlink:href="#SimSun-6fc0" x="200"/>
     <use xlink:href="#SimSun-6d3b" x="300"/>
     <use xlink:href="#SimSun-51fd" x="400"/>
     <use xlink:href="#SimSun-6570" x="500"/>
     <use xlink:href="#SimSun-5bf9" x="600"/>
     <use xlink:href="#SimSun-6bd4" x="700"/>
    </g>
   </g>
   <g id="legend_1">
    <g id="patch_7">
     <path d="M 66 99.447 
L 128.4 99.447 
Q 130.8 99.447 130.8 97.047 
L 130.8 49.872 
Q 130.8 47.472 128.4 47.472 
L 66 47.472 
Q 63.6 47.472 63.6 49.872 
L 63.6 97.047 
Q 63.6 99.447 66 99.447 
z
" style="fill: #ffffff; opacity: 0.8; stroke: #cccccc; stroke-linejoin: miter"/>
    </g>
    <g id="line2d_16">
     <path d="M 68.4 56.650125 
L 80.4 56.650125 
L 92.4 56.650125 
" style="fill: none; stroke: #ff0000; stroke-width: 1.5; stroke-linecap: square"/>
    </g>
    <g id="text_14">
     <!-- GELU -->
     <g transform="translate(102 60.850125)scale(0.12 -0.12)">
      <defs>
       <path id="SimSun-47" d="M 1625 4250 
Q 1250 4250 937 3737 
Q 625 3225 625 2175 
Q 625 1475 862 850 
Q 1100 225 1650 225 
Q 1925 225 2087 337 
Q 2250 450 2275 675 
L 2275 1525 
Q 2275 1675 2200 1750 
Q 2125 1825 1975 1825 
L 1825 1825 
L 1825 1975 
L 3075 1975 
L 3075 1825 
L 2950 1825 
Q 2825 1825 2750 1750 
Q 2675 1675 2675 1550 
L 2675 300 
Q 2625 325 2587 337 
Q 2550 350 2500 350 
Q 2450 350 2400 337 
Q 2350 325 2300 275 
Q 2150 150 1987 100 
Q 1825 50 1625 50 
Q 875 50 525 712 
Q 175 1375 175 2175 
Q 175 3100 587 3762 
Q 1000 4425 1625 4425 
Q 1775 4425 1975 4350 
Q 2175 4275 2225 4275 
Q 2300 4275 2375 4312 
Q 2450 4350 2500 4425 
L 2700 3300 
L 2550 3250 
Q 2400 3775 2175 4012 
Q 1950 4250 1625 4250 
z
" transform="scale(0.015625)"/>
       <path id="SimSun-45" d="M 200 4225 
L 200 4375 
L 2650 4375 
L 2925 3525 
L 2800 3475 
Q 2600 3850 2375 4037 
Q 2150 4225 1875 4225 
L 1175 4225 
Q 1075 4225 1012 4175 
Q 950 4125 950 4025 
L 950 2475 
L 1675 2475 
Q 1925 2475 2037 2600 
Q 2150 2725 2150 2975 
L 2150 3125 
L 2300 3125 
L 2300 1650 
L 2150 1650 
L 2150 1750 
Q 2150 2025 2037 2175 
Q 1925 2325 1675 2325 
L 950 2325 
L 950 450 
Q 950 350 1012 300 
Q 1075 250 1175 250 
L 1825 250 
Q 2200 250 2462 462 
Q 2725 675 2875 1125 
L 3000 1075 
L 2725 100 
L 175 100 
L 175 250 
L 325 250 
Q 450 250 500 300 
Q 550 350 550 450 
L 550 4025 
Q 550 4125 500 4175 
Q 450 4225 325 4225 
L 200 4225 
z
" transform="scale(0.015625)"/>
       <path id="SimSun-4c" d="M 1000 450 
Q 1000 350 1062 300 
Q 1125 250 1225 250 
L 1900 250 
Q 2250 250 2500 462 
Q 2750 675 2875 1125 
L 3000 1075 
L 2775 100 
L 200 100 
L 200 250 
L 375 250 
Q 500 250 550 300 
Q 600 350 600 450 
L 600 4025 
Q 600 4125 550 4175 
Q 500 4225 375 4225 
L 225 4225 
L 225 4375 
L 1400 4375 
L 1400 4225 
L 1225 4225 
Q 1125 4225 1062 4175 
Q 1000 4125 1000 4025 
L 1000 450 
z
" transform="scale(0.015625)"/>
       <path id="SimSun-55" d="M 1625 250 
Q 2000 250 2262 500 
Q 2525 750 2525 1125 
L 2525 4025 
Q 2525 4125 2475 4175 
Q 2425 4225 2300 4225 
L 2150 4225 
L 2150 4375 
L 3050 4375 
L 3050 4225 
L 2900 4225 
Q 2800 4225 2737 4175 
Q 2675 4125 2675 4025 
L 2675 1125 
Q 2675 625 2337 337 
Q 2000 50 1575 50 
Q 1125 50 787 300 
Q 450 550 450 1100 
L 450 4025 
Q 450 4125 400 4175 
Q 350 4225 225 4225 
L 100 4225 
L 100 4375 
L 1200 4375 
L 1200 4225 
L 1075 4225 
Q 975 4225 912 4175 
Q 850 4125 850 4025 
L 850 1100 
Q 850 600 1062 425 
Q 1275 250 1625 250 
z
" transform="scale(0.015625)"/>
      </defs>
      <use xlink:href="#SimSun-47"/>
      <use xlink:href="#SimSun-45" x="50"/>
      <use xlink:href="#SimSun-4c" x="100"/>
      <use xlink:href="#SimSun-55" x="150"/>
     </g>
    </g>
    <g id="line2d_17">
     <path d="M 68.4 72.775125 
L 80.4 72.775125 
L 92.4 72.775125 
" style="fill: none; stroke: #008000; stroke-width: 1.5; stroke-linecap: square"/>
    </g>
    <g id="text_15">
     <!-- ReLU -->
     <g transform="translate(102 76.975125)scale(0.12 -0.12)">
      <defs>
       <path id="SimSun-52" d="M 2825 3375 
Q 2825 2875 2550 2600 
Q 2275 2325 1925 2275 
L 2675 425 
Q 2725 325 2787 287 
Q 2850 250 2925 250 
L 3075 250 
L 3075 100 
L 2375 100 
L 1550 2250 
L 975 2250 
L 975 450 
Q 975 350 1037 300 
Q 1100 250 1200 250 
L 1350 250 
L 1350 100 
L 200 100 
L 200 250 
L 350 250 
Q 475 250 525 300 
Q 575 350 575 450 
L 575 4025 
Q 575 4125 525 4175 
Q 475 4225 350 4225 
L 200 4225 
L 200 4375 
L 1625 4375 
Q 2200 4375 2512 4125 
Q 2825 3875 2825 3375 
z
M 2750 250 
L 2750 250 
z
M 975 2400 
L 1525 2400 
Q 1900 2400 2150 2625 
Q 2400 2850 2400 3325 
Q 2400 3750 2175 3987 
Q 1950 4225 1475 4225 
L 1200 4225 
Q 1100 4225 1037 4175 
Q 975 4125 975 4025 
L 975 2400 
z
" transform="scale(0.015625)"/>
       <path id="SimSun-65" d="M 2400 1650 
Q 2425 2200 2212 2487 
Q 2000 2775 1650 2775 
Q 1275 2775 1037 2475 
Q 800 2175 800 1650 
L 2400 1650 
z
M 800 1500 
Q 800 825 1062 537 
Q 1325 250 1750 250 
Q 2075 250 2300 437 
Q 2525 625 2625 900 
L 2750 850 
Q 2675 575 2412 312 
Q 2150 50 1700 50 
Q 1125 50 762 425 
Q 400 800 400 1500 
Q 400 2125 762 2537 
Q 1125 2950 1650 2950 
Q 2125 2950 2475 2625 
Q 2825 2300 2825 1500 
L 800 1500 
z
" transform="scale(0.015625)"/>
      </defs>
      <use xlink:href="#SimSun-52"/>
      <use xlink:href="#SimSun-65" x="50"/>
      <use xlink:href="#SimSun-4c" x="100"/>
      <use xlink:href="#SimSun-55" x="150"/>
     </g>
    </g>
    <g id="line2d_18">
     <path d="M 68.4 88.900125 
L 80.4 88.900125 
L 92.4 88.900125 
" style="fill: none; stroke: #1f77b4; stroke-width: 1.5; stroke-linecap: square"/>
    </g>
    <g id="text_16">
     <!-- ELU -->
     <g transform="translate(102 93.100125)scale(0.12 -0.12)">
      <use xlink:href="#SimSun-45"/>
      <use xlink:href="#SimSun-4c" x="50"/>
      <use xlink:href="#SimSun-55" x="100"/>
     </g>
    </g>
   </g>
  </g>
 </g>
 <defs>
  <clipPath id="p99bd686277">
   <rect x="57.6" y="41.472" width="357.12" height="266.112"/>
  </clipPath>
 </defs>
</svg>
